<svg id="_0476_qr_code" xmlns="http://www.w3.org/2000/svg" xmlns:xlink="http://www.w3.org/1999/xlink" viewBox="0 0 500 500" data-imageid="qr-code-37-da293" imageName="QR Code" class="illustrations_image" style="width: 151px;"><defs><style>.cls-1_qr-code-37-da293{fill:#020202;opacity:.1;}.cls-1_qr-code-37-da293,.cls-2_qr-code-37-da293,.cls-3_qr-code-37-da293,.cls-4_qr-code-37-da293,.cls-5_qr-code-37-da293,.cls-6_qr-code-37-da293,.cls-7_qr-code-37-da293,.cls-8_qr-code-37-da293,.cls-9_qr-code-37-da293,.cls-10_qr-code-37-da293,.cls-11_qr-code-37-da293,.cls-12_qr-code-37-da293,.cls-13_qr-code-37-da293,.cls-14_qr-code-37-da293,.cls-15_qr-code-37-da293,.cls-16_qr-code-37-da293,.cls-17_qr-code-37-da293,.cls-18_qr-code-37-da293,.cls-19_qr-code-37-da293,.cls-20_qr-code-37-da293{stroke-width:0px;}.cls-1_qr-code-37-da293,.cls-4_qr-code-37-da293{isolation:isolate;}.cls-2_qr-code-37-da293,.cls-21_qr-code-37-da293{fill:none;}.cls-3_qr-code-37-da293{fill:url(#linear-gradient);}.cls-4_qr-code-37-da293{opacity:.18;}.cls-4_qr-code-37-da293,.cls-20_qr-code-37-da293{fill:#68e1fd;}.cls-5_qr-code-37-da293{fill:url(#linear-gradient-11-qr-code-37-da293);}.cls-6_qr-code-37-da293{fill:url(#linear-gradient-12-qr-code-37-da293);}.cls-7_qr-code-37-da293{fill:url(#linear-gradient-10-qr-code-37-da293);}.cls-21_qr-code-37-da293{stroke:url(#linear-gradient-4-qr-code-37-da293);stroke-miterlimit:10;stroke-width:.86px;}.cls-8_qr-code-37-da293{fill:url(#linear-gradient-2-qr-code-37-da293);}.cls-9_qr-code-37-da293{fill:url(#linear-gradient-3-qr-code-37-da293);}.cls-10_qr-code-37-da293{fill:url(#linear-gradient-8-qr-code-37-da293);}.cls-11_qr-code-37-da293{fill:url(#linear-gradient-9-qr-code-37-da293);}.cls-12_qr-code-37-da293{fill:url(#linear-gradient-7-qr-code-37-da293);}.cls-13_qr-code-37-da293{fill:url(#linear-gradient-5-qr-code-37-da293);}.cls-14_qr-code-37-da293{fill:url(#linear-gradient-6-qr-code-37-da293);}.cls-15_qr-code-37-da293{fill:#231f20;}.cls-16_qr-code-37-da293{fill:#c9d9df;}.cls-17_qr-code-37-da293{fill:#c14834;}.cls-18_qr-code-37-da293{fill:#fff;}.cls-19_qr-code-37-da293{fill:#ffb4a3;}</style><linearGradient id="linear-gradient-qr-code-37-da293" x1="377.56" y1="3119.67" x2="268.75" y2="2719.11" gradientTransform="translate(-56.09 3331.03) scale(1 -1)" gradientUnits="userSpaceOnUse"><stop offset="0" stop-color="#231f20"/><stop offset=".13" stop-color="#231f20" stop-opacity=".69"/><stop offset=".25" stop-color="#231f20" stop-opacity=".32"/><stop offset="1" stop-color="#231f20" stop-opacity="0"/></linearGradient><linearGradient id="linear-gradient-2-qr-code-37-da293" x1="191.15" y1="3033.28" x2="8.13" y2="2877.36" xlink:href="#linear-gradient-qr-code-37-da293"/><linearGradient id="linear-gradient-3-qr-code-37-da293" x1="1943.87" y1="3044.9" x2="1760.84" y2="2888.99" gradientTransform="translate(2233.84 3331.03) rotate(-180)" xlink:href="#linear-gradient-qr-code-37-da293"/><linearGradient id="linear-gradient-4-qr-code-37-da293" x1="59.97" y1="3013.64" x2="290.15" y2="2829.82" gradientTransform="translate(30.28 3179.78) rotate(-5.34) scale(1.07 -1) skewX(4.95)" gradientUnits="userSpaceOnUse"><stop offset="0" stop-color="#fff"/><stop offset="1" stop-color="#cbcbcb"/></linearGradient><linearGradient id="linear-gradient-5-qr-code-37-da293" x1="285.47" y1="3013.6" x2="251.62" y2="2900.36" xlink:href="#linear-gradient-qr-code-37-da293"/><linearGradient id="linear-gradient-6-qr-code-37-da293" x1="172.96" y1="3086.69" x2="172.84" y2="3071.31" gradientTransform="translate(30.27 3179.78) rotate(-5.34) scale(1.07 -1) skewX(4.95)" xlink:href="#linear-gradient-4-qr-code-37-da293"/><linearGradient id="linear-gradient-7-qr-code-37-da293" x1="190.69" y1="3094.98" x2="191.54" y2="3083.72" gradientTransform="translate(-1494 2651.38) rotate(24.89) scale(1.07 -.99) skewX(4.9)" xlink:href="#linear-gradient-4-qr-code-37-da293"/><linearGradient id="linear-gradient-8-qr-code-37-da293" x1="276.63" y1="3117.86" x2="397.91" y2="3075.77" gradientTransform="translate(-52.29 3353.72) rotate(1.15) scale(1 -1) skewX(-1.15)" xlink:href="#linear-gradient-4-qr-code-37-da293"/><linearGradient id="linear-gradient-9-qr-code-37-da293" x1="398.18" y1="3132.39" x2="247.73" y2="3102.84" gradientTransform="translate(-31 3343.65) scale(1 -1)" gradientUnits="userSpaceOnUse"><stop offset="0" stop-color="#fff"/><stop offset="1" stop-color="#fff" stop-opacity="0"/></linearGradient><linearGradient id="linear-gradient-10-qr-code-37-da293" x1="385.81" y1="3135.22" x2="394.67" y2="3125.85" gradientTransform="translate(-56.09 3331.03) scale(1 -1)" xlink:href="#linear-gradient-4-qr-code-37-da293"/><linearGradient id="linear-gradient-11-qr-code-37-da293" x1="385.1" y1="3253.4" x2="435.88" y2="3198.34" gradientTransform="translate(-31 3343.65) scale(1 -1)" xlink:href="#linear-gradient-qr-code-37-da293"/><linearGradient id="linear-gradient-12-qr-code-37-da293" x1="391.88" y1="3266.96" x2="391.88" y2="3207.87" gradientTransform="translate(-31 3343.65) scale(1 -1)" xlink:href="#linear-gradient-qr-code-37-da293"/></defs><g id="background_qr-code-37-da293"><path class="cls-4_qr-code-37-da293 targetColor" d="M209.84,98.53c-28.55,23.8-51.56,54.15-81.93,75.69-28.09,19.84-61.99,31.73-86.16,56.17-42.96,43.43-42.91,113.36.12,156.73,28.91,29.13,71.65,40.1,112.62,42.26,40.98,2.16,82.06-3.21,123.04-1.01,38.78,2.09,77.34,10.92,116.06,8,38.72-2.92,79.73-21.18,95.02-56.86,16.93-39.49-2.47-83.92-15.85-124.73-10.1-30.86-16.77-62.74-19.88-95.06-4.64-48.35-13.19-115.49-74.03-118.17-60.43-2.74-122.69,18.3-169.02,56.98Z" style="fill: rgb(104, 225, 253);"/><path class="cls-3_qr-code-37-da293" d="M372.76,367.27c2.51,1.28,2.88,4.97,1.46,7.39-1.42,2.42-4.1,3.86-6.6,5.05-6.01,2.79-12.33,4.88-18.82,6.24-2.94.63-6.83,2.29-6.09,5.22.53,2.33,3.55,2.89,5.94,2.94,35.5.55,70.61-8.98,106.1-8.19,2.35,0,4.96.26,6.57,1.98,2.03,2.17,1.49,5.67.34,8.41-6.34,15.24-24.58,21.18-40.88,23.81-37.13,6.02-75,4.3-112.61,3.88-74.89-.82-149.99,3.59-224.62-2.94-1.58,0-3.13-.43-4.48-1.26-1.33-1.18-2.15-2.83-2.28-4.6-1.27-9.08,5.99-17.61,14.54-20.93,8.55-3.32,18.04-2.73,27.19-2.06,38.77,2.73,77.69,5.05,116.45,2.13,25.38-1.7,50.48-6.28,74.83-13.65,11.18-3.48,22.5-10.34,33.93-12.43,3.52-.64,7.1-.2,10.65-.38,5.16-.26,13.57-3.05,18.38-.6Z"/></g><g id="plant_qr-code-37-da293"><path class="cls-20_qr-code-37-da293 targetColor" d="M9.57,302.03c.14,4.57,2.39,8.78,4.64,12.77,10.25,18.09,21.72,35.9,37.56,49.33,23.32,19.73,53.87,28.22,83.36,36.2-2.65-1.28-5.82-14.87-6.99-17.86-2.28-5.86-4.41-11.77-6.61-17.64-3.45-9.3-10.75-16.78-17.75-23.62-16.05-15.44-35.52-26.86-56.83-33.34-12.13-3.69-24.71-5.66-37.39-5.83Z" style="fill: rgb(104, 225, 253);"/><path class="cls-8_qr-code-37-da293" d="M9.57,302.03c.14,4.57,2.39,8.78,4.64,12.77,10.25,18.09,21.72,35.9,37.56,49.33,23.32,19.73,53.87,28.22,83.36,36.2-2.65-1.28-5.82-14.87-6.99-17.86-2.28-5.86-4.41-11.77-6.61-17.64-3.45-9.3-10.75-16.78-17.75-23.62-16.05-15.44-35.52-26.86-56.83-33.34-12.13-3.69-24.71-5.66-37.39-5.83Z"/><path class="cls-20_qr-code-37-da293 targetColor" d="M124.96,312.13c-2.4-16.82-4.87-33.88-11.65-49.47s-18.5-29.73-34.44-35.71l-1.37,72.3c-.27,13.91-.51,28.1,3.48,41.44,7.02,23.38,31.32,50.81,54.75,58.54,3.47-11.24-2.36-28.24-4.1-39.9l-6.69-47.2Z" style="fill: rgb(104, 225, 253);"/><path class="cls-20_qr-code-37-da293 targetColor" d="M415.46,290.42c-.12,4.56-2.39,8.78-4.64,12.75-10.23,18.09-21.71,35.91-37.58,49.33-23.32,19.73-53.85,28.24-83.29,36.2,2.64-1.28,5.8-14.87,6.98-17.86,2.28-5.86,4.41-11.76,6.61-17.64,3.45-9.3,10.75-16.77,17.83-23.61,16.02-15.43,35.47-26.86,56.75-33.34,12.11-3.7,24.68-5.67,37.35-5.83Z" style="fill: rgb(104, 225, 253);"/><path class="cls-9_qr-code-37-da293" d="M415.46,290.42c-.12,4.56-2.39,8.78-4.64,12.75-10.23,18.09-21.71,35.91-37.58,49.33-23.32,19.73-53.85,28.24-83.29,36.2,2.64-1.28,5.8-14.87,6.98-17.86,2.28-5.86,4.41-11.76,6.61-17.64,3.45-9.3,10.75-16.77,17.83-23.61,16.02-15.43,35.47-26.86,56.75-33.34,12.11-3.7,24.68-5.67,37.35-5.83Z"/><path class="cls-20_qr-code-37-da293 targetColor" d="M300.06,300.54c2.4-16.82,4.87-33.89,11.65-49.47,6.77-15.58,18.5-29.79,34.44-35.72.46,24.1.92,48.2,1.37,72.29.26,13.93.51,28.11-3.5,41.46-7,23.38-31.32,50.81-54.74,58.52-3.48-11.22,2.35-28.24,4.01-39.9l6.77-47.18Z" style="fill: rgb(104, 225, 253);"/></g><g id="phone_qr-code-37-da293"><path class="cls-2_qr-code-37-da293" d="M132.46,232.31c-.39.28-.71.64-.93,1.07-1.22,1.55-1.86,3.49-1.82,5.46,0,.11.04.22.11.3.08.05.18.09.27.1.85.12,1.71.22,2.57.29-.65,2.25-.79,4.62-.4,6.94,0,.51.14,1.02.42,1.45.59.52,1.37.76,2.14.67h5.05c.91.02,1.83-.03,2.73-.15.16-.02.32-.08.45-.18.11-.13.18-.3.18-.48.31-2.21-.33-4.42-.42-6.65-.04-.13-.04-.28,0-.41.09-.14.22-.24.37-.3l1.47-.78c.14-.07.27-.17.37-.29.09-.16.13-.35.12-.53.22-2-.44-3.99-1.8-5.46-1.11-.82-2.45-1.27-3.84-1.28-1.28-.08-2.55-.14-3.84-.29-1.1-.12-2.22.06-3.22.53Z"/><path class="cls-2_qr-code-37-da293" d="M135.98,232.83c.11.27.29.51.51.71.23.16.49.26.76.3.27.04.55,0,.81-.1.26-.13.47-.34.6-.6.12-.26.2-.54.23-.82.08-.68.01-1.36-.19-2.01-.06-.2-.16-.38-.29-.55-.23-.22-.52-.35-.83-.38-.44-.08-1.46-.15-1.67.37-.22.61-.31,1.26-.25,1.91.04.4.15.79.31,1.16Z"/><path class="cls-2_qr-code-37-da293" d="M140.44,226.7c.04,1-.3,1.97-.94,2.73-.67.79-1.8,1.03-2.73.57-.31-.19-.6-.43-.85-.71-.44-.4-.81-.86-1.12-1.37-.22-.49-.35-1.02-.38-1.56-.09-.64-.04-1.28.15-1.9.2-.62.63-1.13,1.2-1.43.46-.18.95-.26,1.45-.25.57-.02,1.15.04,1.71.18.64.18,1.19.45,1.23,1.15s.37,1.69.29,2.58Z"/><path class="cls-20_qr-code-37-da293 targetColor" d="M275.8,65.07l-126.4,12.44c-13.05,1.28-23.65,12.29-23.65,24.51v283.4c0,12.29,10.6,21.14,23.65,19.85l126.4-12.44c13.07-1.28,23.66-12.29,23.66-24.5V84.93c0-12.26-10.6-21.15-23.66-19.87ZM287.39,368.93c0,7.55-6.53,14.31-14.57,15.1l-122.82,12.08c-8.06.79-14.58-4.68-14.58-12.29V101.18c0-7.55,6.53-14.31,14.58-15.1l18.41-1.82v1.68c0,4.83,4.18,8.34,9.33,7.84l67.93-6.6c5.09-.43,9.08-4.56,9.34-9.67v-1.61l17.75-1.75c8.04-.79,14.57,4.68,14.57,12.29l.07,282.48Z" style="fill: rgb(104, 225, 253);"/><path class="cls-18_qr-code-37-da293" d="M281.75,70.3l-126.41,12.44c-13.05,1.28-23.65,12.29-23.65,24.58v283.33c0,12.29,10.6,21.14,23.65,19.85l126.41-12.43c13.05-1.28,23.65-12.29,23.65-24.51V90.16c0-12.25-10.58-21.08-23.65-19.87ZM293.35,374.16c0,7.55-6.53,14.31-14.58,15.1l-122.89,12.08c-8.06.79-14.58-4.68-14.58-12.29V106.41c0-7.55,6.53-14.32,14.58-15.12l18.47-1.73v1.67c0,4.83,4.18,8.34,9.33,7.84l67.94-6.68c5.08-.45,9.05-4.56,9.33-9.65v-1.65l17.82-1.76c8.06-.79,14.58,4.7,14.58,12.29v282.55Z"/><path class="cls-21_qr-code-37-da293" d="M293.35,91.57v282.65c0,7.55-6.53,14.31-14.58,15.1l-122.89,12.08c-8.06.79-14.58-4.68-14.58-12.29V106.47c0-7.55,6.53-14.32,14.58-15.12l18.47-1.79v1.67c0,4.83,4.18,8.34,9.33,7.84l67.94-6.68c5.08-.45,9.05-4.56,9.33-9.65v-1.65l17.82-1.76c8.06-.79,14.58,4.7,14.58,12.25Z"/><path class="cls-20_qr-code-37-da293 targetColor" d="M293.35,91.57v282.65c0,7.55-6.53,14.31-14.58,15.1l-122.89,12.08c-8.06.79-14.58-4.68-14.58-12.29V106.47c0-7.55,6.53-14.32,14.58-15.12l18.47-1.79v1.67c0,4.83,4.18,8.34,9.33,7.84l67.94-6.68c5.08-.45,9.05-4.56,9.33-9.65v-1.65l17.82-1.76c8.06-.79,14.58,4.7,14.58,12.25Z" style="fill: rgb(104, 225, 253);"/><path class="cls-13_qr-code-37-da293" d="M251.4,359.76l-61.72,5.91c-3.47.29-6.52-2.3-6.81-5.77-.01-.18-.02-.35-.02-.53v-15.44c0-3.29,2.5-6.05,5.78-6.36l61.69-5.91c3.47-.33,6.55,2.21,6.88,5.68.02.2.03.41.03.62v15.44c0,3.31-2.54,6.07-5.83,6.36Z"/><polygon class="cls-14_qr-code-37-da293" points="226.9 88.72 203.55 91.01 203.55 89.07 226.9 86.78 226.9 88.72"/><ellipse class="cls-12_qr-code-37-da293" cx="233.06" cy="86.84" rx="2.61" ry="2.32" transform="translate(-11.97 129.49) rotate(-30.31)"/><path class="cls-16_qr-code-37-da293" d="M171.93,305.45l89.04-8.53c6.23-.56,10.98-5.81,10.92-12.06v-100.46c-.06-7.33-6.05-13.22-13.38-13.17-.33,0-.66.02-.99.04l-89.04,8.53c-6.22.55-10.98,5.8-10.92,12.04v100.47c.06,7.33,6.05,13.22,13.38,13.17.33,0,.66-.02.99-.04Z"/><path class="cls-10_qr-code-37-da293" d="M177.19,306.87l89.04-8.53c6.22-.55,10.98-5.8,10.92-12.04v-100.47c-.06-7.33-6.05-13.22-13.38-13.17-.33,0-.66.02-.99.04l-89.04,8.53c-6.23.56-10.98,5.81-10.92,12.06v100.46c.06,7.33,6.05,13.22,13.38,13.17.33,0,.66-.02.99-.04Z"/><g id="BD3XWZ_qr-code-37-da293"><path class="cls-15_qr-code-37-da293" d="M180.62,199.65l31.95-2.57v32.07l-31.95,2.57v-32.07ZM207.27,224.22v-21.33l-21.36,1.72v21.45l21.36-1.84Z"/><path class="cls-15_qr-code-37-da293" d="M234.11,195.32l31.92-2.57v32.1l-31.92,2.62v-32.16ZM260.75,219.98v-21.45l-21.37,1.72v21.45l21.37-1.72Z"/><path class="cls-15_qr-code-37-da293" d="M212.57,282.84l-31.95,2.57v-31.99l31.95-2.57v31.99ZM185.89,279.66l21.41-1.67v-21.44l-21.41,1.72v21.38Z"/><path class="cls-15_qr-code-37-da293" d="M223.29,201.53l5.33-.42v10.66l-5.28.42v5.33l-5.26.42v-21.3l5.22-.42v5.31Z"/><path class="cls-15_qr-code-37-da293" d="M266.05,240.96l-10.57.85v-5.33l-10.68.85v-5.26l21.25-1.71v10.6Z"/><path class="cls-15_qr-code-37-da293" d="M260.77,262.98v5.27l5.27-.42v10.66l-10.53.85v-15.89l5.26-.46Z"/><path class="cls-15_qr-code-37-da293" d="M191.21,236.38v5.28l5.3-.42v5.35l-15.88,1.28v-10.6l10.58-.9Z"/><path class="cls-15_qr-code-37-da293" d="M223.33,233.75l15.95-1.28v10.66l-10.62.86h0v-5.46l-5.33.42v-5.33.12Z"/><path class="cls-15_qr-code-37-da293" d="M234.11,248.97l5.28-.42v-5.3l10.6-.86v10.6l-15.88,1.27v-5.28Z"/><path class="cls-15_qr-code-37-da293" d="M228.65,244v10.66l-10.62.86v-10.66h0l10.68-.86h-.05Z"/><path class="cls-15_qr-code-37-da293" d="M228.64,270.96l2.87-.29,7-.56h.79v10.61l-10.6.86v-10.6l-.07-.03Z"/><path class="cls-15_qr-code-37-da293" d="M218.03,244.86l-10.64.85v-5.3l5.26-.42v-5.37l5.37-.44h0v10.72-.04Z"/><path class="cls-15_qr-code-37-da293" d="M266.05,257.05l-5.23.42v-5.31l-5.3.42v-5.28l10.53-.85v10.6Z"/><path class="cls-15_qr-code-37-da293" d="M223.37,271.35v-5.46l-5.3.42v-5.24l10.57-.85v10.72c-.82,0-1.62,0-2.43.11s-1.91.19-2.87.29h.03Z"/><path class="cls-15_qr-code-37-da293" d="M223.38,228.42v-10.72l5.23-.42v10.71l-5.26.42h.03Z"/><path class="cls-15_qr-code-37-da293" d="M223.35,271.33v10.64l-5.26.42v-10.61l5.31-.44h-.05Z"/><path class="cls-15_qr-code-37-da293" d="M207.21,235.09v5.23l-10.53.85v-5.23l10.53-.85Z"/><path class="cls-15_qr-code-37-da293" d="M244.81,264.12v-5.24l10.54-.85v5.2l-10.54.89Z"/><path class="cls-15_qr-code-37-da293" d="M244.81,280.23v-10.57l5.19-.42v10.57l-5.19.42Z"/><path class="cls-15_qr-code-37-da293" d="M218.01,234.18v-5.34l5.37-.44h0v5.35h0l-5.35.44h-.01Z"/><path class="cls-15_qr-code-37-da293" d="M234.1,264.98v-5.22l5.19-.41v5.2l-5.19.42Z"/><path class="cls-15_qr-code-37-da293" d="M228.75,260.04v-5.26l5.2-.42v5.22l-5.2.46Z"/><path class="cls-15_qr-code-37-da293" d="M244.64,269.52l-5.18.42v-5.23l5.18-.42v5.23Z"/><path class="cls-15_qr-code-37-da293" d="M201.88,208.68l-10.55.85v10.57l10.55-.85v-10.57Z"/><path class="cls-15_qr-code-37-da293" d="M255.35,214.98v-10.6l-10.51.85v10.6l10.51-.85Z"/><path class="cls-15_qr-code-37-da293" d="M191.29,273.8l10.55-.85v-10.58l-10.55.85v10.58Z"/><path class="cls-15_qr-code-37-da293" d="M201.88,208.68v10.6l-10.55.85v-10.57l10.55-.87Z"/><path class="cls-15_qr-code-37-da293" d="M255.35,214.98l-10.51.85v-10.6l10.51-.85v10.6Z"/><path class="cls-15_qr-code-37-da293" d="M191.29,273.8v-10.58l10.55-.85v10.58l-10.55.85Z"/></g><path class="cls-18_qr-code-37-da293" d="M254.49,357.71l-61.69,5.9c-3.46.34-6.54-2.19-6.88-5.65-.02-.21-.03-.42-.03-.63v-15.44c0-3.29,2.5-6.05,5.78-6.36l61.69-5.91c3.47-.33,6.55,2.21,6.88,5.68.02.2.03.41.03.62v15.44c0,3.29-2.5,6.05-5.78,6.36Z"/><path class="cls-20_qr-code-37-da293 targetColor" d="M204.21,351.03l2.54-.25c0,.26.13.51.34.67.28.17.61.24.93.19.32-.03.63-.13.9-.31.25-.15.39-.42.38-.71,0-.07,0-.14,0-.2-.08-.1-.18-.18-.29-.25-.22-.13-.47-.22-.72-.27l-1.22-.27c-.48-.08-.94-.23-1.37-.45-.33-.16-.62-.41-.83-.71-.31-.44-.48-.97-.48-1.52-.01-.88.36-1.73,1.02-2.31.72-.64,1.63-1.02,2.59-1.08.9-.14,1.82.08,2.57.6.67.51,1.04,1.33,1,2.17l-2.51.23c0-.61-.36-.89-1.08-.82-.29,0-.57.11-.81.29-.18.15-.29.37-.29.6,0,.36.31.6.96.72l1.19.26c1.91.38,2.87,1.37,2.87,2.73.01.66-.21,1.3-.61,1.82-.38.49-.88.88-1.45,1.12-.56.25-1.16.4-1.78.45-.95.14-1.92-.07-2.73-.59-.71-.47-1.14-1.26-1.13-2.12Z" style="fill: rgb(104, 225, 253);"/><path class="cls-20_qr-code-37-da293 targetColor" d="M220.58,349l2.06,1.19c-.48.75-1.12,1.38-1.88,1.84-.76.47-1.62.76-2.51.85-1.35.17-2.71-.25-3.73-1.15-1.01-.87-1.58-2.14-1.54-3.47,0-1.41.56-2.75,1.54-3.75.96-1.06,2.3-1.72,3.73-1.83.86-.1,1.73.03,2.53.37.75.32,1.4.84,1.88,1.5l-2.09,1.58c-.24-.36-.58-.65-.98-.82-.43-.2-.9-.27-1.37-.22-.75.06-1.44.41-1.94.97-.51.53-.8,1.23-.79,1.97-.03.69.27,1.36.79,1.82.53.47,1.24.69,1.94.6.49-.04.95-.19,1.37-.45.4-.25.75-.59,1-1Z" style="fill: rgb(104, 225, 253);"/><path class="cls-20_qr-code-37-da293 targetColor" d="M230.54,351.55l-.87-2.2-3.25.3-.87,2.36-2.73.25,3.82-10.3,2.73-.25,3.8,9.56-2.62.27ZM228.01,344.15l-.93,3.36,1.94-.18-1.01-3.18Z" style="fill: rgb(104, 225, 253);"/><path class="cls-20_qr-code-37-da293 targetColor" d="M239.55,340.81l2.5-.23v9.95l-2.18.19-3.17-5.13v5.46l-2.51.23v-9.95l2.27-.2,3.1,5.07v-5.38Z" style="fill: rgb(104, 225, 253);"/></g><g id="character_qr-code-37-da293"><polygon class="cls-11_qr-code-37-da293" points="336.65 202.23 269.67 171.23 160.02 184.49 162.81 301.48 171.93 305.45 271.88 297.44 277.14 286.3 335.65 206.81 336.65 202.23"/><path class="cls-18_qr-code-37-da293" d="M334.04,209.39v-9.8c0-.66.35-1.27.93-1.6l5.46-3.04c.57-.33,2.84,1,2.84,1.65l-1.54,16.82-3.84,2.96-3.84-2.25v-4.74Z"/><path class="cls-7_qr-code-37-da293" d="M334.04,209.39v-9.8c0-.66.35-1.27.93-1.6l5.46-3.04c.57-.33,2.84,1,2.84,1.65l-1.54,16.82-3.84,2.96-3.84-2.25v-4.74Z"/><path class="cls-18_qr-code-37-da293" d="M335.65,210.61v-9.82c0-.66.35-1.26.93-1.58l5.46-3.06c.42-.23.95-.08,1.19.34.07.13.11.27.11.41v17.75l-3.84,2.95-3.84-2.24v-4.75Z"/><path class="cls-20_qr-code-37-da293 targetColor" d="M336.65,210.2v-7.97l6.21-3.92v13.19l-1.37,4.44-2.89.96s-1.54-.66-1.54-.86" style="fill: rgb(104, 225, 253);"/><path class="cls-18_qr-code-37-da293" d="M423.49,282.83l-.82,1.11,2.95-42,.59-8.44.29-4.1,1.54,3.32c2.89,6.1,8.9,18.87,10.58,22.37,1.93,4.01-11.62,22.91-15.13,27.75Z"/><path class="cls-1_qr-code-37-da293" d="M423.49,282.83c-.34-.81-.47-1.68-.37-2.55.36-1.92,1.19-3.72,2.4-5.24,3.25-4.78,7.32-9.84,9.19-15.39,2.46-7.33-5.6-11.88-9.09-17.75-.89-1.37-1.43-2.95-1.54-4.59-.12-1.59.72-3.11,2.13-3.85.57-.35,1.18-.62,1.83-.79,2.89,6.1,8.9,18.87,10.58,22.37,1.93,4.07-11.62,22.97-15.13,27.8Z"/><path class="cls-15_qr-code-37-da293" d="M403.48,398.39c-1.3.59-2.37,1.59-3.06,2.84-.14.28-.19.6-.12.9.2.46.6.8,1.08.94,3.44,1.37,7.33,1.11,10.92.45,3.6-.88,7.29-1.42,10.99-1.6.64.1,1.28-.08,1.78-.49.23-.34.34-.75.31-1.16.15-3.22-.41-6.44-1.64-9.42.08.19-9.74.59-10.58,1.16-1.56,1.08-2.85,2.46-4.52,3.45s-3.43,1.94-5.16,2.92Z"/><path class="cls-15_qr-code-37-da293" d="M416.54,328.11c-.07,12.57.92,25.12,2.95,37.52.33,2.16.68,4.3,1.12,6.44,3.22,15.84,3.48,19.87,3.48,19.87h-12.94s-9.56-44.86-13.11-55.07c-2.69-7.74-4.78-15.67-6.27-23.73-.58-3.82-.11-7.72,1.37-11.29.5-1.41,1.21-2.73,2.12-3.92,1.76-1.94,3.96-3.43,6.42-4.34,5.23-2.36,10.88-3.64,16.62-3.74.65-.06,1.31.09,1.88.41.37.3.66.68.85,1.12,1.68,3.41,1.37,7.43.85,11.2-.23,2.09-.68,4.15-1.37,6.14-.76,2.03-1.97,3.88-2.66,5.94-.59,1.98-.94,4.03-1.04,6.1-.08,2.44-.2,4.89-.26,7.35Z"/><path class="cls-15_qr-code-37-da293" d="M384.09,318.19c.27,1.63.38,3.29.31,4.94-.05,2.97.04,5.93.29,8.89.72,14.08,2.85,28.1,2.87,42.19,0,12.02-.4,24.58-.4,24.58,0,0,10.47,3.22,12.89.81l4.03-58.03c.61-4.38,1.56-8.83,1.87-13.24.27-3.84.36-7.09,1.79-10.77,1.61-4.1,3.91-7.96,5.15-12.22.8-2.73,1.15-5.57,1.02-8.41.04-.87-.2-1.73-.68-2.46-.48-.49-1.06-.87-1.71-1.11-7.25-3.22-14.77-6.5-22.71-6.43-.64-.05-1.28.08-1.84.4-.53.44-.92,1.04-1.11,1.71-2.92,7.7-3.82,16.02-2.61,24.17.31,1.76.59,3.37.83,5Z"/><path class="cls-19_qr-code-37-da293" d="M344.99,219.28c-.31-1.84-.27-3.77-.44-5.64,0-.73-.2-1.45-.57-2.09-.4-.64-1.2-.91-1.91-.64-.85.42-.87,1.58-.85,2.53s-.22,2.14-1.15,2.32c-.35.03-.7-.04-1.01-.2-.94-.5-1.59-1.42-1.75-2.47-.08-.61,0-1.26-.11-1.87-.36-1.78-2.65-1.47-3.71-.55-.63.61-1.14,1.32-1.5,2.12-.77,1.34-1.34,2.79-1.68,4.3-1.13,6.16,6.29,7.48,9.44,11.42.45.61.95,1.18,1.5,1.71,1.08.93,2.58,1.21,3.93.74,1.34-.49,2.31-1.67,2.54-3.09.37-2.29-1.3-4.36-2.12-6.54-.27-.66-.47-1.34-.61-2.03Z"/><path class="cls-19_qr-code-37-da293" d="M398.39,203.28c.13.17.22.37.29.57.09.42.09.85,0,1.27-.55,2.47-.93,4.97-1.13,7.5-.11.71.03,1.43.38,2.05.56.6,1.34.96,2.16,1.01,1.2.19,2.41.27,3.62.25.48,0,1.07,0,1.37.4.1.18.16.38.16.59.06.94-.13,1.88-.53,2.73-.25.41-.37.89-.36,1.37.1.87,1.37.79,2.02.83,2.49.12,4.98.14,7.47,0,.43.02.86-.07,1.24-.26.67-.4.82-1.28,1.01-2.03.85-3.48,3.54-6.19,4.98-9.46,1.51-3.53,1.54-7.51.1-11.06-.69-1.68-1.67-3.22-2.89-4.55-1.12-1.24-3.28-1.5-4.83-1.83-2.73-.57-5.76-.74-8.19.72-2.73,1.64-3.99,5-6.73,6.57-.48.27-1.07.55-1.23,1.08-.09.55.1,1.11.51,1.49.18.27.41.51.6.78Z"/><path class="cls-17_qr-code-37-da293" d="M406,192.41c.06.42.19.83.38,1.22.87,1.82,2.02,1.37,3.59,1.6,1.91.34,3.15,2.49,3.55,4.23.34,2.12.27,4.28-.2,6.38.86-.71,2.08-.79,3.03-.2.92.64,1.38,1.76,1.17,2.87-.23,1.11-1.07,1.99-2.16,2.28-.53.14-1.16.16-1.49.6-.18.32-.25.68-.22,1.04,0,2.32.1,4.85,1.57,6.65,2.05-.2,3.6-1.84,5.13-3.21,2.17-1.94,4.66-3.52,6.75-5.56,2.21-1.94,3.59-4.67,3.84-7.61.07-4.71-4.1-8.34-5.63-12.78-.27-1-.63-1.97-1.08-2.91-1.62-2.54-5-3.29-7.54-1.67-.15.1-.29.2-.43.31-2.25-1.48-5.16-1.48-7.41,0-2.05,1.62-3.13,4.18-2.85,6.77Z"/><path class="cls-18_qr-code-37-da293" d="M425.99,244.21c-.56,4.4-.75,8.84-.55,13.27.12,4.33.33,8.63.51,12.96-.83,3.73-1.76,7.46-2.73,11.14-.62,3.01-1.63,5.93-3.02,8.67-.7,1.32-1.62,2.51-2.73,3.51-1.09.96-2.33,1.73-3.67,2.28-3.15,1.17-6.52,1.63-9.87,1.37-2.36-.09-4.71-.45-6.99-1.07h0c-2.93-.73-5.66-2.13-7.96-4.1-1.16-1.03-2.17-2.22-3-3.52-2.01-3.21-3.22-6.86-3.54-10.64-.69-6.2.11-12.47,2.33-18.3.12-.34.26-.67.4-1.01.94-2.4,1.88-4.81,2.85-7.21v-.1c.15-.38.3-.74.44-1.11l.08-.2-.53.22-.56.2c-.18.07-.36.13-.55.18-.4.15-.82.26-1.22.37l-1.37.34c-.78.16-1.57.31-2.36.41l-1.08.12c-9.93.87-20.75-3.14-29.06-7.58h0c-2.71-1.38-5.19-3.17-7.35-5.31-.45-.48-.87-.98-1.27-1.5-.99-1.31-1.73-2.8-2.16-4.38-.3-.96-.3-1.99,0-2.95.02-.04.04-.07.07-.11.3-.66.72-1.25,1.23-1.76,1.26-1.38,2.6-2.69,4-3.93l.44-.38c.38-.33.82-.58,1.3-.72.95-.21,1.95,0,2.73.6.7.49,1.35,1.04,1.94,1.65,7.66,7.31,18.03,11.09,28.59,10.43,2.87-.12,5.69-.8,8.3-1.99,2.29-1.24,4.42-2.77,6.34-4.53,1.73-1.42,3.38-2.93,4.94-4.53.41-.44.83-.89,1.2-1.37s.6-.74.89-1.11l.36-.46c.31-.47.72-.87,1.2-1.17h0c.69-.32,1.44-.47,2.2-.44,2.96-.12,6.19-.68,9.11-.61h.31c.28.01.57.04.85.1,1.01.16,1.96.6,2.73,1.27h0c.95.91,1.82,1.91,2.59,2.98,1.82,1.99,3.24,4.31,4.21,6.83,1.42,4.18.08,8.75-.57,13.2Z"/><path class="cls-18_qr-code-37-da293" d="M429.4,243.76c-.01,4.74-.37,9.46-1.08,14.15-.61,4.22-1.37,8.38-2.38,12.53-.18-4.33-.38-8.63-.51-12.96-.2-4.43-.02-8.87.55-13.27.66-4.44,1.99-9.03.61-13.29-.96-2.52-2.39-4.84-4.21-6.83-.78-1.07-1.64-2.06-2.59-2.98,2.73,2.06,4.89,5.9,6.69,8.19,3.07,4.03,2.88,9.64,2.91,14.45Z"/><path class="cls-1_qr-code-37-da293" d="M429.4,243.76c-.01,4.74-.37,9.46-1.08,14.15-.61,4.22-1.37,8.38-2.38,12.53-.18-4.33-.38-8.63-.51-12.96-.2-4.43-.02-8.87.55-13.27.66-4.44,1.99-9.03.61-13.29-.96-2.52-2.39-4.84-4.21-6.83-.78-1.07-1.64-2.06-2.59-2.98,2.73,2.06,4.89,5.9,6.69,8.19,3.07,4.03,2.88,9.64,2.91,14.45Z"/><path class="cls-1_qr-code-37-da293" d="M425.99,244.21c-.56,4.4-.75,8.84-.55,13.27.12,4.33.33,8.63.51,12.96-.83,3.73-1.76,7.46-2.73,11.14-.62,3.01-1.63,5.93-3.02,8.67-.7,1.32-1.62,2.51-2.73,3.51-1.09.96-2.33,1.73-3.67,2.28-3.15,1.17-6.52,1.63-9.87,1.37-2.36-.09-4.71-.45-6.99-1.07h0c-2.93-.73-5.66-2.13-7.96-4.1-1.16-1.03-2.17-2.22-3-3.52-2.01-3.21-3.22-6.86-3.54-10.64-.69-6.2.11-12.47,2.33-18.3.12-.34.26-.67.4-1.01,1.08-2.35,2.03-4.76,2.85-7.21v-.1c.11-.41.2-.79.3-1.19-.1.04-.21.08-.31.1l-.56.2c-.18.07-.36.13-.55.18-.4.15-.82.26-1.22.37l-1.37.34c-.78.16-1.57.31-2.36.41l-1.08.12c-10.06,1.02-20.39-2.91-29.06-7.58h0c-2.71-1.38-5.19-3.17-7.35-5.31-.45-.48-.87-.98-1.27-1.5-.99-1.31-1.73-2.8-2.16-4.38-.3-.96-.3-1.99,0-2.95.02-.04.04-.07.07-.11.3-.66.72-1.25,1.23-1.76,1.26-1.38,2.6-2.69,4-3.93l.44-.38c.38-.33.82-.58,1.3-.72.95-.21,1.95,0,2.73.6.7.49,1.35,1.04,1.94,1.65,7.66,7.31,18.03,11.09,28.59,10.43,2.87-.12,5.69-.8,8.3-1.99,2.29-1.24,4.42-2.77,6.34-4.53,1.73-1.42,3.38-2.93,4.94-4.53.41-.44.83-.89,1.2-1.37s.6-.74.89-1.11l.36-.46c.31-.47.72-.87,1.2-1.17h0c.69-.32,1.44-.47,2.2-.44,2.96-.12,6.19-.68,9.11-.61h.31c.28.01.57.04.85.1.99.22,1.92.65,2.73,1.27h0c.95.91,1.82,1.91,2.59,2.98,1.82,1.99,3.24,4.31,4.21,6.83,1.42,4.18.08,8.75-.57,13.2Z"/><path class="cls-15_qr-code-37-da293" d="M379.34,406.02c-1.3.59-2.37,1.59-3.06,2.84-.14.28-.19.6-.12.9.2.46.6.8,1.08.93,3.44,1.37,7.33,1.12,10.99.46,3.61-.88,7.29-1.42,11.01-1.6.63.1,1.27-.08,1.76-.49.23-.34.34-.75.31-1.16.15-3.22-.41-6.44-1.64-9.42.08.19-9.74.57-10.57,1.16-1.57,1.08-2.87,2.46-4.53,3.45s-3.5,1.88-5.23,2.92Z"/><path class="cls-18_qr-code-37-da293" d="M362.9,240.24c-6.54-2.33-13.2-4.64-18.42-9.34-.6-.43-1.02-1.08-1.16-1.8.09-.91.6-1.73,1.37-2.23.93-.94,2-1.75,3.15-2.39,1.17-.65,2.57-.78,3.84-.34.87.44,1.66,1.04,2.32,1.76,4.8,4.32,10.71,7.22,17.07,8.38,6.19,1.37,13,1.45,18.94-.96,3.44-1.37,10.92-10.42,14.27-9.09,3.35,1.32,1.87,8,.25,10.08-3.51,4.47-12.4,6.58-17.75,7.59-7.96,1.58-16.2,1-23.87-1.67Z"/><path class="cls-18_qr-code-37-da293" d="M414.98,225.48c1.52-.72,2.66-2.06,3.11-3.69-1.8-.37-3.64-.46-5.46-.27l-5.23.26-3.44.18c-2.14.12-2.18,1.07-1.37,2.54.38.7,1.37,1.26,1.78,2.01s.48,1.56.97,2.13c1.37,1.64,1.75.71,3.51-.36s4.12-1.71,6.13-2.8Z"/></g><g id="paperplane_qr-code-37-da293"><polygon class="cls-20_qr-code-37-da293 targetColor" points="330.19 99.79 391.56 93.35 347.68 110.54 330.19 99.79" style="fill: rgb(104, 225, 253);"/><polygon class="cls-20_qr-code-37-da293 targetColor" points="391.56 93.35 354.98 128.74 347.68 110.54 391.56 93.35" style="fill: rgb(104, 225, 253);"/><polygon class="cls-5_qr-code-37-da293" points="391.56 93.35 354.98 128.74 347.68 110.54 391.56 93.35"/><polygon class="cls-20_qr-code-37-da293 targetColor" points="340.44 129.95 347.68 110.54 391.56 93.35 340.44 129.95" style="fill: rgb(104, 225, 253);"/><polygon class="cls-6_qr-code-37-da293" points="391.56 93.35 347.68 106.78 330.19 99.79 347.68 110.54 391.56 93.35"/></g></svg>