<svg width="472" height="538" viewBox="0 0 472 538" fill="none" xmlns="http://www.w3.org/2000/svg">
<path d="M59.2285 0H472V538H59.2285" fill="#457DFC" fill-opacity="0.3"/>
<path d="M161.024 109.894H376.815C377.751 109.894 378.678 110.08 379.542 110.44C380.405 110.8 381.189 111.329 381.847 111.994C382.506 112.659 383.026 113.449 383.377 114.316C383.729 115.184 383.905 116.113 383.895 117.049V129.997H153.944V117.049C153.934 116.113 154.11 115.184 154.462 114.316C154.813 113.449 155.333 112.659 155.991 111.994C156.65 111.329 157.434 110.8 158.297 110.44C159.161 110.08 160.088 109.894 161.024 109.894Z" fill="#457DFC"/>
<path d="M153.945 129.939H383.897V256.439C383.897 258.317 383.151 260.118 381.823 261.447C380.495 262.775 378.694 263.521 376.817 263.521H161.025C159.148 263.521 157.347 262.775 156.019 261.447C154.691 260.118 153.945 258.317 153.945 256.439V129.939Z" fill="white"/>
<path d="M341.591 120.589C341.594 121.319 341.38 122.034 340.977 122.642C340.574 123.25 339.999 123.725 339.326 124.006C338.653 124.287 337.911 124.363 337.195 124.222C336.479 124.081 335.821 123.731 335.304 123.216C334.787 122.701 334.434 122.044 334.291 121.329C334.147 120.613 334.219 119.871 334.498 119.196C334.776 118.522 335.249 117.945 335.855 117.539C336.462 117.134 337.175 116.917 337.905 116.917C338.88 116.917 339.816 117.303 340.506 117.992C341.197 118.68 341.587 119.614 341.591 120.589Z" fill="white"/>
<path d="M355.005 120.589C355.005 121.316 354.79 122.026 354.387 122.63C353.983 123.234 353.41 123.704 352.739 123.982C352.068 124.26 351.33 124.333 350.617 124.191C349.905 124.05 349.251 123.7 348.738 123.186C348.224 122.673 347.874 122.018 347.733 121.306C347.591 120.593 347.664 119.855 347.942 119.184C348.219 118.513 348.69 117.939 349.294 117.536C349.898 117.132 350.608 116.917 351.334 116.917C352.308 116.917 353.241 117.304 353.93 117.993C354.619 118.681 355.005 119.615 355.005 120.589Z" fill="#FFC86E"/>
<path d="M368.42 120.589C368.42 121.316 368.204 122.026 367.801 122.63C367.397 123.234 366.824 123.704 366.153 123.982C365.482 124.26 364.744 124.333 364.032 124.191C363.319 124.05 362.665 123.7 362.152 123.186C361.638 122.673 361.288 122.018 361.147 121.306C361.005 120.594 361.078 119.855 361.356 119.184C361.634 118.513 362.104 117.94 362.708 117.536C363.312 117.132 364.022 116.917 364.748 116.917C365.722 116.917 366.656 117.304 367.344 117.993C368.033 118.681 368.42 119.615 368.42 120.589Z" fill="#545073"/>
<path d="M368.42 142.331H297.621V209.649H368.42V142.331Z" fill="#C7DCF1"/>
<path d="M297.621 175.998L368.42 196.145V209.649H297.621V175.998Z" fill="#6FA8DF"/>
<path d="M324.828 183.737L368.419 171.842V196.144L324.828 183.737Z" fill="#545073"/>
<path d="M317.997 169.823C322.61 169.823 326.35 166.083 326.35 161.469C326.35 156.855 322.61 153.114 317.997 153.114C313.384 153.114 309.644 156.855 309.644 161.469C309.644 166.083 313.384 169.823 317.997 169.823Z" fill="#FF777D"/>
<path d="M173.545 148.71H280.724C281.57 148.71 282.381 148.374 282.979 147.776C283.577 147.178 283.913 146.367 283.913 145.521C283.913 144.675 283.577 143.864 282.979 143.266C282.381 142.667 281.57 142.331 280.724 142.331H173.545C173.125 142.329 172.709 142.41 172.32 142.57C171.932 142.729 171.579 142.964 171.281 143.26C170.983 143.557 170.747 143.909 170.586 144.297C170.425 144.685 170.342 145.101 170.342 145.521C170.342 145.941 170.425 146.357 170.586 146.745C170.747 147.133 170.983 147.485 171.281 147.781C171.579 148.078 171.932 148.312 172.32 148.472C172.709 148.631 173.125 148.712 173.545 148.71Z" fill="#C7DCF1"/>
<path d="M173.545 161.542H280.724C281.569 161.538 282.378 161.201 282.975 160.604C283.572 160.006 283.909 159.197 283.913 158.352C283.913 157.505 283.578 156.692 282.98 156.092C282.382 155.491 281.571 155.152 280.724 155.148H173.545C172.696 155.148 171.881 155.486 171.28 156.087C170.679 156.688 170.342 157.503 170.342 158.352C170.346 159.2 170.685 160.011 171.285 160.609C171.886 161.206 172.698 161.542 173.545 161.542Z" fill="#C7DCF1"/>
<path d="M173.545 174.373H280.724C281.571 174.369 282.382 174.03 282.98 173.43C283.578 172.829 283.913 172.016 283.913 171.169C283.909 170.324 283.572 169.515 282.975 168.918C282.378 168.321 281.569 167.983 280.724 167.979H173.545C172.698 167.979 171.886 168.315 171.285 168.913C170.685 169.511 170.346 170.322 170.342 171.169C170.342 172.019 170.679 172.834 171.28 173.435C171.881 174.036 172.696 174.373 173.545 174.373Z" fill="#C7DCF1"/>
<path d="M173.545 187.19H280.724C281.569 187.186 282.378 186.849 282.975 186.252C283.572 185.654 283.909 184.845 283.913 184.001C283.913 183.153 283.578 182.341 282.98 181.74C282.382 181.14 281.571 180.8 280.724 180.796H173.545C172.696 180.796 171.881 181.134 171.28 181.735C170.679 182.336 170.342 183.151 170.342 184.001C170.346 184.848 170.685 185.659 171.285 186.257C171.886 186.855 172.698 187.19 173.545 187.19Z" fill="#C7DCF1"/>
<path d="M173.545 200.022H280.724C281.571 200.018 282.382 199.679 282.98 199.078C283.578 198.478 283.913 197.665 283.913 196.817C283.909 195.973 283.572 195.164 282.975 194.566C282.378 193.969 281.569 193.632 280.724 193.628H173.545C172.698 193.628 171.886 193.963 171.285 194.561C170.685 195.159 170.346 195.97 170.342 196.817C170.342 197.667 170.679 198.482 171.28 199.083C171.881 199.684 172.696 200.022 173.545 200.022Z" fill="#C7DCF1"/>
<path d="M173.545 212.839H280.724C281.57 212.839 282.381 212.503 282.979 211.904C283.577 211.306 283.913 210.495 283.913 209.649C283.913 209.23 283.831 208.815 283.67 208.428C283.51 208.042 283.275 207.69 282.979 207.394C282.683 207.098 282.331 206.863 281.945 206.702C281.558 206.542 281.143 206.46 280.724 206.46H173.545C173.125 206.458 172.709 206.539 172.32 206.698C171.932 206.858 171.579 207.092 171.281 207.389C170.983 207.685 170.747 208.037 170.586 208.425C170.425 208.813 170.342 209.229 170.342 209.649C170.342 210.069 170.425 210.485 170.586 210.873C170.747 211.261 170.983 211.613 171.281 211.91C171.579 212.206 171.932 212.441 172.32 212.6C172.709 212.76 173.125 212.841 173.545 212.839Z" fill="#C7DCF1"/>
<path d="M173.545 225.67H365.171C366.017 225.67 366.828 225.334 367.426 224.736C368.024 224.138 368.36 223.327 368.36 222.481C368.362 222.06 368.281 221.644 368.122 221.255C367.962 220.867 367.728 220.513 367.431 220.216C367.135 219.918 366.783 219.682 366.395 219.521C366.007 219.359 365.591 219.276 365.171 219.276H173.545C172.696 219.276 171.881 219.614 171.28 220.215C170.679 220.816 170.342 221.631 170.342 222.481C170.346 223.328 170.685 224.139 171.285 224.737C171.886 225.335 172.698 225.67 173.545 225.67Z" fill="#C7DCF1"/>
<path d="M173.545 238.501H365.171C365.591 238.501 366.007 238.418 366.395 238.257C366.783 238.096 367.135 237.86 367.431 237.562C367.728 237.264 367.962 236.911 368.122 236.522C368.281 236.134 368.362 235.717 368.36 235.297C368.36 234.451 368.024 233.64 367.426 233.042C366.828 232.444 366.017 232.108 365.171 232.108H173.545C172.698 232.108 171.886 232.443 171.285 233.041C170.685 233.639 170.346 234.45 170.342 235.297C170.342 235.718 170.425 236.135 170.586 236.523C170.747 236.912 170.983 237.265 171.28 237.563C171.578 237.861 171.931 238.097 172.319 238.258C172.708 238.419 173.125 238.501 173.545 238.501Z" fill="#C7DCF1"/>
<path d="M173.545 251.318H365.171C366.017 251.318 366.828 250.982 367.426 250.384C368.024 249.786 368.36 248.975 368.36 248.129C368.362 247.709 368.281 247.292 368.122 246.904C367.962 246.515 367.728 246.162 367.431 245.864C367.135 245.566 366.783 245.33 366.395 245.169C366.007 245.008 365.591 244.925 365.171 244.925H173.545C172.696 244.925 171.881 245.262 171.28 245.863C170.679 246.464 170.342 247.279 170.342 248.129C170.346 248.976 170.685 249.787 171.285 250.385C171.886 250.983 172.698 251.318 173.545 251.318Z" fill="#C7DCF1"/>
<path d="M277.872 218.603H107.529V388.982H277.872V218.603Z" fill="white"/>
<path d="M222.652 234.39V273.031H261.285V234.39H222.652ZM255.77 267.53H228.182V239.906H255.77V267.53Z" fill="#545073"/>
<path d="M178.505 245.437H172.99V250.953H178.505V245.437Z" fill="#545073"/>
<path d="M239.21 245.437H233.695V250.952V256.468V261.999H239.21H244.739H250.254V256.468V250.952V245.437H244.739H239.21Z" fill="#545073"/>
<path d="M145.387 261.999H150.916V256.468V250.952V245.437H145.387H139.872H134.357V250.952V256.468V261.999H139.872H145.387Z" fill="#545073"/>
<path d="M217.138 256.469H211.623V261.984H217.138V256.469Z" fill="#545073"/>
<path d="M178.505 261.999H172.99V267.515H178.505V261.999Z" fill="#545073"/>
<path d="M184.019 267.53H189.548V261.999H195.063V267.53H200.548V261.999H206.078V256.483H200.548V250.967H217.107V245.437H206.107V234.405H200.548V239.921H189.519V234.405H167.475V239.921H184.019V250.967H178.504V261.999H184.019V267.53ZM189.548 245.437H195.063V250.967H189.548V245.437Z" fill="#545073"/>
<path d="M161.947 273.031V234.39H123.314V273.031H161.947ZM128.873 239.906H156.461V267.53H128.873V239.906Z" fill="#545073"/>
<path d="M184.019 267.515H178.504V273.031H184.019V267.515Z" fill="#545073"/>
<path d="M195.064 267.515H189.549V273.031H195.064V267.515Z" fill="#545073"/>
<path d="M206.093 267.515H200.578V273.031H206.093V267.515Z" fill="#545073"/>
<path d="M178.505 273.031H172.99V267.515H167.461V273.031V278.547H172.99V284.077H178.505V278.547V273.031Z" fill="#545073"/>
<path d="M200.579 273.031H195.064V278.547H200.579V273.031Z" fill="#545073"/>
<path d="M128.829 278.547H123.314V284.077H128.829H134.359V278.547H128.829Z" fill="#545073"/>
<path d="M161.946 278.562H156.432V284.077H161.946V278.562Z" fill="#545073"/>
<path d="M195.064 278.561H189.549V284.077H195.064V278.561Z" fill="#545073"/>
<path d="M228.167 278.562H222.652V284.077H228.167V278.562Z" fill="#545073"/>
<path d="M261.284 278.561H255.77V284.077H261.284V278.561Z" fill="#545073"/>
<path d="M222.651 284.077H217.137V289.593H222.651V284.077Z" fill="#545073"/>
<path d="M244.741 284.077H239.211H233.696H228.182V289.593H222.652V295.109H228.182V300.64H233.696V295.109V289.593H239.211V295.109V300.64H244.741H250.255H255.77V306.156H261.285V300.64V295.109V289.593H255.77V295.109H250.255H244.741V289.593H250.255H255.77V284.077H250.255H244.741Z" fill="#545073"/>
<path d="M139.872 295.109V289.593H145.387H150.917V284.077V278.547H145.387H139.872V284.077H134.358V289.593H128.828V295.109H134.358H139.872Z" fill="#545073"/>
<path d="M156.431 295.109H161.945V289.593H156.431H150.916V295.109H156.431Z" fill="#545073"/>
<path d="M178.505 289.593H172.99V295.109H178.505V289.593Z" fill="#545073"/>
<path d="M184.019 295.109V300.64H189.548V295.109V289.593V284.077H184.019H178.504V289.593H184.019V295.109Z" fill="#545073"/>
<path d="M195.064 295.109H200.579V289.593H206.109V295.109H211.623H217.138V289.593H211.623V284.077H217.138V278.547V273.031V267.515H211.623V273.031V278.547H206.109V284.077H200.579H195.064V289.593V295.109Z" fill="#545073"/>
<path d="M150.901 295.109H145.387V300.625H150.901V295.109Z" fill="#545073"/>
<path d="M161.946 300.64H156.432V306.156H161.946V300.64Z" fill="#545073"/>
<path d="M195.064 300.64H189.549V306.156H195.064V300.64Z" fill="#545073"/>
<path d="M228.167 300.64H222.652V306.156H228.167V300.64Z" fill="#545073"/>
<path d="M145.387 306.156V300.64H139.872V306.156V311.672V317.202H134.357V322.718V328.234H139.872V322.718H145.387V317.202H150.916V311.672H156.431V306.156H150.916H145.387Z" fill="#545073"/>
<path d="M250.254 311.672H244.739H239.21V306.156H233.695V311.672V317.202H239.21V322.718H244.739V328.234V333.75H250.254H255.769V328.234V322.718H250.254V317.202H255.769V322.718H261.284V317.202V311.672H255.769V306.156H250.254V311.672Z" fill="#545073"/>
<path d="M128.829 311.672V306.156H134.359V300.64H128.829V295.109H123.314V328.234H128.829V322.718V317.202H134.359V311.672H128.829Z" fill="#545073"/>
<path d="M161.946 311.672H156.432V317.188H161.946V311.672Z" fill="#545073"/>
<path d="M233.697 317.187H228.182V322.703H222.653V317.187H228.182V311.672H222.653V306.156H217.138V300.625H206.108V306.156H195.064V311.672H206.108V333.75H211.623V339.222H206.108V344.752H200.55V350.268H195.035V355.784H206.079V350.268H222.623V355.784H228.153V350.268H239.182V322.703H233.668L233.697 317.187ZM233.697 333.75V344.796H217.138V328.234H233.697V333.75Z" fill="#545073"/>
<path d="M184.02 322.718H189.549V317.202H184.02V311.672H189.549V306.156H184.02V300.64H178.505H172.99V295.109H167.461H161.946V300.64H167.461V317.202H172.99V311.672H178.505V317.202V322.718H172.99H167.461H161.946H156.432V328.234H161.946H167.461V333.75H172.99V328.234H178.505V333.75H184.02V328.234V322.718Z" fill="#545073"/>
<path d="M200.578 328.234V322.718H195.064H189.549V328.234H195.064V333.75H200.578V328.234Z" fill="#545073"/>
<path d="M123.314 333.75V372.391H161.947V333.75H123.314ZM156.432 366.875H128.873V339.222H156.461L156.432 366.875Z" fill="#545073"/>
<path d="M228.167 333.75H222.652V339.266H228.167V333.75Z" fill="#545073"/>
<path d="M184.019 339.281H178.504V344.796H184.019V339.281Z" fill="#545073"/>
<path d="M200.578 344.796V339.28H195.064V333.75H189.549H184.02V339.28H189.549V344.796H184.02V350.312H178.505H172.99V344.796H167.461V350.312V355.843H172.99V361.359H178.505V366.875H184.02V361.359H189.549V355.843V350.312H195.064V344.796H200.578Z" fill="#545073"/>
<path d="M255.77 344.796H261.284V339.28V333.75H255.77V339.28V344.796Z" fill="#545073"/>
<path d="M139.872 344.796H134.357V350.312V355.843V361.359H139.872H145.387H150.916V355.843V350.312V344.796H145.387H139.872Z" fill="#545073"/>
<path d="M250.255 350.312V355.843H244.74H239.211H233.696V361.359H228.182V366.875H233.696H239.211V361.359H244.74V366.875H250.255H255.77V372.391H261.285V350.312H255.77V344.796H250.255V350.312Z" fill="#545073"/>
<path d="M222.651 355.843H217.137V361.359H222.651V355.843Z" fill="#545073"/>
<path d="M172.99 361.359H167.461V366.875V372.391H172.99H178.505V366.875H172.99V361.359Z" fill="#545073"/>
<path d="M200.578 366.875V372.391H206.107V366.875V361.359H200.578V366.875Z" fill="#545073"/>
<path d="M195.064 366.875H189.549V372.391H195.064V366.875Z" fill="#545073"/>
<path d="M211.623 366.875V372.391H217.138H222.653V366.875H217.138H211.623Z" fill="#545073"/>
<path d="M244.726 366.875H239.211V372.391H244.726V366.875Z" fill="#545073"/>
<path d="M212.953 230.118V377.453" stroke="#FF777D" stroke-width="2.15" stroke-miterlimit="10" stroke-linecap="round"/>
<path d="M188.73 140.649H11.3367C5.0756 140.649 0 145.725 0 151.988V477.003C0 483.265 5.0756 488.342 11.3367 488.342H188.73C194.991 488.342 200.066 483.265 200.066 477.003V151.988C200.066 145.725 194.991 140.649 188.73 140.649Z" fill="#2F2F2F"/>
<path d="M190.207 437.572L190.207 171.696C190.207 170.88 189.546 170.218 188.73 170.218H11.3366C10.5207 170.218 9.85919 170.88 9.85919 171.696L9.85919 437.572C9.85919 438.388 10.5207 439.05 11.3366 439.05H188.73C189.546 439.05 190.207 438.388 190.207 437.572Z" fill="#C7DCF1"/>
<path d="M127.263 153.7H72.8028C72.5269 153.7 72.2537 153.754 71.9989 153.86C71.7442 153.966 71.5129 154.122 71.3185 154.318C71.124 154.514 70.9703 154.746 70.866 155.001C70.7618 155.257 70.7091 155.531 70.711 155.807C70.711 156.361 70.9314 156.894 71.3237 157.286C71.716 157.678 72.248 157.899 72.8028 157.899H127.263C127.817 157.899 128.349 157.678 128.742 157.286C129.134 156.894 129.354 156.361 129.354 155.807C129.356 155.531 129.304 155.257 129.199 155.001C129.095 154.746 128.941 154.514 128.747 154.318C128.553 154.122 128.321 153.966 128.067 153.86C127.812 153.754 127.539 153.7 127.263 153.7Z" fill="#545073"/>
<path d="M110.829 474.281C116.793 468.316 116.793 458.645 110.83 452.68C104.866 446.714 95.1962 446.714 89.2322 452.68C83.2683 458.645 83.2683 468.316 89.2322 474.281C95.1962 480.247 104.866 480.247 110.829 474.281Z" fill="white"/>
<path d="M108.511 471.964C113.196 467.279 113.196 459.682 108.512 454.997C103.827 450.312 96.2324 450.312 91.5481 454.997C86.8638 459.682 86.8638 467.279 91.5481 471.964C96.2324 476.649 103.827 476.649 108.511 471.964Z" fill="#6FA8DF"/>
<path d="M277.872 218.603H107.529V388.982H277.872V218.603Z" fill="white"/>
<path d="M222.65 234.39V273.031H261.283V234.39H222.65ZM255.768 267.53H228.18V239.906H255.768V267.53Z" fill="#545073"/>
<path d="M178.505 245.437H172.99V250.953H178.505V245.437Z" fill="#545073"/>
<path d="M239.21 245.437H233.695V250.953V256.469V261.999H239.21H244.739H250.254V256.469V250.953V245.437H244.739H239.21Z" fill="#545073"/>
<path d="M145.387 261.999H150.916V256.469V250.953V245.437H145.387H139.872H134.357V250.953V256.469V261.999H139.872H145.387Z" fill="#545073"/>
<path d="M217.136 256.469H211.621V261.984H217.136V256.469Z" fill="#545073"/>
<path d="M178.505 261.999H172.99V267.515H178.505V261.999Z" fill="#545073"/>
<path d="M184.019 267.53H189.548V261.999H195.063V267.53H200.548V261.999H206.078V256.483H200.548V250.967H217.107V245.437H206.107V234.405H200.548V239.921H189.519V234.405H167.475V239.921H184.019V250.967H178.504V261.999H184.019V267.53ZM189.548 245.437H195.063V250.967H189.548V245.437Z" fill="#545073"/>
<path d="M161.945 273.031V234.39H123.312V273.031H161.945ZM128.871 239.906H156.459V267.53H128.871V239.906Z" fill="#545073"/>
<path d="M184.019 267.515H178.504V273.031H184.019V267.515Z" fill="#545073"/>
<path d="M195.064 267.515H189.549V273.031H195.064V267.515Z" fill="#545073"/>
<path d="M206.093 267.515H200.578V273.031H206.093V267.515Z" fill="#545073"/>
<path d="M178.505 273.031H172.99V267.515H167.461V273.031V278.547H172.99V284.077H178.505V278.547V273.031Z" fill="#545073"/>
<path d="M200.577 273.031H195.062V278.547H200.577V273.031Z" fill="#545073"/>
<path d="M128.827 278.547H123.312V284.077H128.827H134.357V278.547H128.827Z" fill="#545073"/>
<path d="M161.944 278.562H156.43V284.077H161.944V278.562Z" fill="#545073"/>
<path d="M195.064 278.562H189.549V284.077H195.064V278.562Z" fill="#545073"/>
<path d="M228.165 278.562H222.65V284.077H228.165V278.562Z" fill="#545073"/>
<path d="M261.284 278.562H255.77V284.077H261.284V278.562Z" fill="#545073"/>
<path d="M222.651 284.077H217.136V289.593H222.651V284.077Z" fill="#545073"/>
<path d="M244.739 284.077H239.209H233.694H228.18V289.593H222.65V295.109H228.18V300.64H233.694V295.109V289.593H239.209V295.109V300.64H244.739H250.253H255.768V306.156H261.283V300.64V295.109V289.593H255.768V295.109H250.253H244.739V289.593H250.253H255.768V284.077H250.253H244.739Z" fill="#545073"/>
<path d="M139.872 295.109V289.593H145.387H150.916V284.077V278.547H145.387H139.872V284.077H134.357V289.593H128.828V295.109H134.357H139.872Z" fill="#545073"/>
<path d="M156.431 295.109H161.945V289.593H156.431H150.916V295.109H156.431Z" fill="#545073"/>
<path d="M178.505 289.593H172.99V295.109H178.505V289.593Z" fill="#545073"/>
<path d="M184.019 295.109V300.64H189.548V295.109V289.593V284.077H184.019H178.504V289.593H184.019V295.109Z" fill="#545073"/>
<path d="M195.062 295.109H200.577V289.593H206.107V295.109H211.621H217.136V289.593H211.621V284.077H217.136V278.547V273.031V267.515H211.621V273.031V278.547H206.107V284.077H200.577H195.062V289.593V295.109Z" fill="#545073"/>
<path d="M150.901 295.109H145.387V300.625H150.901V295.109Z" fill="#545073"/>
<path d="M161.944 300.64H156.43V306.156H161.944V300.64Z" fill="#545073"/>
<path d="M195.064 300.64H189.549V306.156H195.064V300.64Z" fill="#545073"/>
<path d="M228.165 300.64H222.65V306.156H228.165V300.64Z" fill="#545073"/>
<path d="M145.387 306.156V300.64H139.872V306.156V311.672V317.202H134.357V322.718V328.234H139.872V322.718H145.387V317.202H150.916V311.672H156.431V306.156H150.916H145.387Z" fill="#545073"/>
<path d="M250.254 311.672H244.739H239.21V306.156H233.695V311.672V317.202H239.21V322.718H244.739V328.234V333.75H250.254H255.769V328.234V322.718H250.254V317.202H255.769V322.718H261.284V317.202V311.672H255.769V306.156H250.254V311.672Z" fill="#545073"/>
<path d="M128.827 311.672V306.156H134.357V300.64H128.827V295.109H123.312V328.234H128.827V322.718V317.202H134.357V311.672H128.827Z" fill="#545073"/>
<path d="M161.944 311.672H156.43V317.188H161.944V311.672Z" fill="#545073"/>
<path d="M233.695 317.188H228.18V322.704H222.651V317.188H228.18V311.672H222.651V306.156H217.136V300.625H206.107V306.156H195.062V311.672H206.107V333.75H211.621V339.222H206.107V344.753H200.548V350.269H195.033V355.784H206.077V350.269H222.622V355.784H228.151V350.269H239.18V322.704H233.666L233.695 317.188ZM233.695 333.75V344.797H217.136V328.234H233.695V333.75Z" fill="#545073"/>
<path d="M184.018 322.718H189.547V317.202H184.018V311.672H189.547V306.156H184.018V300.64H178.503H172.989V295.109H167.459H161.944V300.64H167.459V317.202H172.989V311.672H178.503V317.202V322.718H172.989H167.459H161.944H156.43V328.234H161.944H167.459V333.75H172.989V328.234H178.503V333.75H184.018V328.234V322.718Z" fill="#545073"/>
<path d="M200.578 328.234V322.718H195.064H189.549V328.234H195.064V333.75H200.578V328.234Z" fill="#545073"/>
<path d="M123.312 333.75V372.391H161.945V333.75H123.312ZM156.43 366.875H128.871V339.222H156.459L156.43 366.875Z" fill="#545073"/>
<path d="M228.165 333.75H222.65V339.266H228.165V333.75Z" fill="#545073"/>
<path d="M184.019 339.281H178.504V344.796H184.019V339.281Z" fill="#545073"/>
<path d="M200.579 344.796V339.281H195.064V333.75H189.549H184.02V339.281H189.549V344.796H184.02V350.312H178.505H172.99V344.796H167.461V350.312V355.843H172.99V361.359H178.505V366.875H184.02V361.359H189.549V355.843V350.312H195.064V344.796H200.579Z" fill="#545073"/>
<path d="M255.77 344.796H261.284V339.281V333.75H255.77V339.281V344.796Z" fill="#545073"/>
<path d="M139.872 344.796H134.357V350.312V355.843V361.359H139.872H145.387H150.916V355.843V350.312V344.796H145.387H139.872Z" fill="#545073"/>
<path d="M250.253 350.312V355.843H244.739H239.209H233.694V361.359H228.18V366.875H233.694H239.209V361.359H244.739V366.875H250.253H255.768V372.391H261.283V350.312H255.768V344.796H250.253V350.312Z" fill="#545073"/>
<path d="M222.651 355.843H217.136V361.359H222.651V355.843Z" fill="#545073"/>
<path d="M172.99 361.359H167.461V366.875V372.391H172.99H178.505V366.875H172.99V361.359Z" fill="#545073"/>
<path d="M200.578 366.875V372.391H206.107V366.875V361.359H200.578V366.875Z" fill="#545073"/>
<path d="M195.064 366.875H189.549V372.391H195.064V366.875Z" fill="#545073"/>
<path d="M211.621 366.875V372.391H217.136H222.651V366.875H217.136H211.621Z" fill="#545073"/>
<path d="M244.726 366.875H239.211V372.391H244.726V366.875Z" fill="#545073"/>
<path d="M217.137 230.118C217.137 229.287 216.89 228.474 216.428 227.783C215.966 227.093 215.31 226.554 214.542 226.237C213.774 225.92 212.929 225.837 212.114 226C211.299 226.164 210.551 226.565 209.965 227.154C209.378 227.742 208.979 228.492 208.819 229.308C208.659 230.123 208.744 230.968 209.064 231.735C209.384 232.502 209.924 233.157 210.617 233.616C211.309 234.076 212.122 234.32 212.953 234.317C214.064 234.313 215.128 233.869 215.912 233.082C216.696 232.295 217.137 231.229 217.137 230.118Z" fill="#FF777D"/>
<path d="M217.137 377.453C217.14 376.621 216.895 375.807 216.435 375.115C215.975 374.422 215.32 373.881 214.552 373.562C213.784 373.242 212.939 373.158 212.123 373.319C211.307 373.481 210.558 373.881 209.97 374.469C209.382 375.057 208.982 375.807 208.82 376.623C208.659 377.439 208.743 378.284 209.063 379.052C209.382 379.82 209.923 380.476 210.615 380.936C211.308 381.396 212.121 381.64 212.953 381.637C214.061 381.634 215.123 381.192 215.907 380.408C216.691 379.624 217.133 378.562 217.137 377.453Z" fill="#FF777D"/>
<path d="M304.32 276.308L269.681 279.966C267.899 280.163 266.252 281.009 265.051 282.341C263.851 283.673 263.183 285.401 263.172 287.194V336.428C263.173 339.262 263.843 342.056 265.127 344.583C266.41 347.11 268.271 349.298 270.559 350.971L295.426 366.743C298.018 368.639 301.146 369.662 304.357 369.662C307.568 369.662 310.696 368.639 313.287 366.743L338.052 350.927C340.327 349.247 342.175 347.056 343.446 344.529C344.717 342.002 345.374 339.212 345.366 336.384V287.15C345.356 285.359 344.689 283.634 343.492 282.302C342.295 280.969 340.651 280.123 338.871 279.922L304.32 276.308Z" fill="#6FA8DF"/>
<path d="M304.321 359.574C303.241 359.58 302.189 359.236 301.322 358.594L276.454 342.821C275.442 342.08 274.618 341.112 274.049 339.993C273.479 338.875 273.181 337.638 273.178 336.384V289.637L304.291 286.345L335.405 289.637V336.384C335.405 337.637 335.109 338.873 334.542 339.992C333.976 341.11 333.154 342.08 332.143 342.821L307.275 358.594C306.419 359.225 305.384 359.568 304.321 359.574Z" fill="white"/>
<path d="M313.756 306.229L301.6 329.112C301.49 329.272 301.342 329.403 301.17 329.493C300.998 329.583 300.807 329.63 300.613 329.63C300.418 329.63 300.227 329.583 300.055 329.493C299.883 329.403 299.735 329.272 299.625 329.112L294.491 321.65C293.961 320.879 293.269 320.235 292.462 319.761C291.656 319.288 290.756 318.998 289.825 318.911C288.894 318.825 287.955 318.944 287.075 319.26C286.196 319.577 285.396 320.083 284.734 320.743C284.073 321.405 283.566 322.203 283.249 323.083C282.931 323.962 282.811 324.9 282.896 325.831C282.981 326.762 283.269 327.663 283.741 328.471C284.213 329.278 284.857 329.971 285.626 330.502L297.972 339.003C298.831 339.591 299.864 339.868 300.902 339.788C301.94 339.708 302.919 339.276 303.677 338.564L324.58 315.534C325.316 314.846 325.899 314.009 326.29 313.08C326.681 312.151 326.872 311.15 326.85 310.142C326.828 309.134 326.593 308.142 326.162 307.231C325.731 306.319 325.112 305.509 324.346 304.854C323.583 304.195 322.689 303.706 321.724 303.416C320.759 303.127 319.743 303.045 318.744 303.174C317.744 303.304 316.784 303.643 315.924 304.17C315.065 304.696 314.326 305.398 313.756 306.229Z" fill="#C7DCF1"/>
</svg>
